<svg id="Layer_1" data-name="Layer 1" xmlns="http://www.w3.org/2000/svg" viewBox="0 0 358 104"><title>BY_JDA_rgb</title><path d="M232.62,22.83A13.25,13.25,0,0,0,221.06,29h-.2l-.41-5.34h-7.73c.2,2.87.27,6.22.27,10.05V57h8.82V37.67a7.79,7.79,0,0,1,.41-2.6,7.88,7.88,0,0,1,7.32-5.2c5.06,0,7.18,3.77,7.18,9V57h8.83V37.81C245.55,26.39,238.5,22.83,232.62,22.83Z" style="fill:#28327d"/><path d="M286.77,8.48H278V27.32h-.14c-1.64-2.46-5.33-4.51-10.46-4.51-8.89,0-16.48,6.9-16.42,17.92,0,10.32,7.19,17,15.6,17,5.33,0,9.85-2.32,12.1-6.49h.14l.34,5.67h7.94c-.21-2.18-.28-5.81-.28-9.5ZM278,41.55a11.06,11.06,0,0,1-.27,2.59,8.46,8.46,0,0,1-8.28,6.64c-6.09,0-9.51-4.52-9.51-10.47,0-6.29,3.56-10.94,9.58-10.94a8.34,8.34,0,0,1,8.27,6.23,12.24,12.24,0,0,1,.21,2.25Z" style="fill:#28327d"/><path d="M309.89,22.81c-11.9,0-17.57,9.37-17.57,17.92,0,10.25,6.91,17,18.4,17A34.56,34.56,0,0,0,323.5,55.5l-1.36-6a28.94,28.94,0,0,1-10.26,1.64c-5.88,0-10.95-2.87-11.22-8.48h24.49a14.1,14.1,0,0,0,.34-3.42C325.49,32.59,321.93,22.81,309.89,22.81Zm-9.23,13.81c.48-3.21,2.87-7.93,8.69-7.93,6.63,0,7.86,5.61,7.79,7.93Z" style="fill:#28327d"/><path d="M121.37,22.81c-11.9,0-17.58,9.37-17.58,17.92,0,10.25,6.91,17,18.4,17A34.66,34.66,0,0,0,135,55.5l-1.37-6a28.86,28.86,0,0,1-10.26,1.64c-5.88,0-10.94-2.87-11.22-8.48h24.49a14.1,14.1,0,0,0,.34-3.42C137,32.59,133.4,22.81,121.37,22.81Zm-9.24,13.81c.48-3.21,2.88-7.93,8.69-7.93,6.63,0,7.86,5.61,7.8,7.93Z" style="fill:#28327d"/><path d="M98.41,23.63H89.58V43.26a5.58,5.58,0,0,1-.48,2.46,7.88,7.88,0,0,1-7.31,4.92c-4.93,0-7-3.62-7-9.44V23.63H66V42.78c0,11.62,6.56,15,12.65,15a13,13,0,0,0,11.7-6.36h.2L91,56.93h7.73c-.21-2.66-.27-6-.27-10Z" style="fill:#28327d"/><path d="M189.15,22.81c-11.35,0-18.94,7.25-18.94,17.78s8.07,17.16,18.26,17.16h.07c9.64,0,18.74-6,18.74-17.85C207.28,30.06,200,22.81,189.15,22.81Zm-.41,28.65h-.06c-5.41,0-9.37-4.44-9.37-11.15,0-5.74,2.94-11.21,9.57-11.21s9.3,5.74,9.3,11.08C198.18,47.43,194,51.46,188.74,51.46Z" style="fill:#28327d"/><path d="M349,22.83c-3.9,0-8.14,2.46-9.91,7.59h-.28l-.27-6.77h-7.59c.2,3,.27,6.22.27,11.15V57H340V39.79a13,13,0,0,1,.21-2.32c.68-3.9,3.56-6.57,8.07-6.57a16.19,16.19,0,0,1,2.8.27V23A11.13,11.13,0,0,0,349,22.83Z" style="fill:#28327d"/><polygon points="168.01 8.51 156.14 30.58 141.61 8.51 131.61 8.51 151.65 39.14 151.4 39.61 142.29 56.96 151.83 56.96 177.55 8.51 168.01 8.51" style="fill:#28327d"/><rect x="49.24" y="8.5" width="8.47" height="48.46" style="fill:#28327d"/><path d="M41.47,36.51A11.06,11.06,0,0,0,36.29,32L36,31.87l.29-.13A8,8,0,0,0,38.92,30a11.07,11.07,0,0,0,1.83-2.51,11.38,11.38,0,0,0,1.09-2.87,13.92,13.92,0,0,0,.34-3,12.57,12.57,0,0,0-1.46-5.9,12.35,12.35,0,0,0-4.11-4.54,15.1,15.1,0,0,0-5.34-2.1,40.45,40.45,0,0,0-6.64-.55H8.83V57h15.8a51.23,51.23,0,0,0,7.57-.55,13.83,13.83,0,0,0,6.12-2.72,11.56,11.56,0,0,0,3.73-4.76,15.69,15.69,0,0,0,1.16-6.06A12.42,12.42,0,0,0,41.47,36.51ZM17.22,15.6h8.52a13.69,13.69,0,0,1,3,.31A7.24,7.24,0,0,1,31.27,17,5.65,5.65,0,0,1,33,19a6.6,6.6,0,0,1,.67,3.11,6.77,6.77,0,0,1-.63,3,5.28,5.28,0,0,1-1.71,2,7.4,7.4,0,0,1-2.48,1.05,13.13,13.13,0,0,1-2.94.31H17.22ZM33.81,45.92A6.29,6.29,0,0,1,31.69,48a9,9,0,0,1-2.88,1.1,16,16,0,0,1-3.18.32H17.22V35.23h8.69A11.07,11.07,0,0,1,32,36.86c1.72,1.12,2.59,3.07,2.59,5.79A6.17,6.17,0,0,1,33.81,45.92Z" style="fill:#28327d"/><path d="M166.23,98.36l-2.74-2.73c2-.58,3.33-1.93,3.33-4.69V74.08h4.57V91.21a7.3,7.3,0,0,1-5.16,7.15m24.33-8.25V64.92h-4.45V74.8A7.4,7.4,0,0,0,182,73.62c-4.52,0-8.14,3.4-8.14,8.5,0,5.51,3.93,8.43,7.73,8.43,2.36,0,4.09-.92,4.92-2.35h0v1.91ZM186.11,85a4,4,0,0,1-3.43,1.79,4.57,4.57,0,1,1,3.43-7.64Zm22,3.12c-1.17-.37-1.9-1.31-1.9-3V79.4c0-3.83-2.87-5.8-6.89-5.8a10.62,10.62,0,0,0-5.5,1.4l.83,3.51a8.63,8.63,0,0,1,4.45-1.25c1.91,0,2.71.81,2.71,1.93v.69l-3.37.34c-3,.29-5.42,2.2-5.42,5.2a5.08,5.08,0,0,0,5.29,5.18c1.91,0,3.49-.64,4.21-2.14a3.43,3.43,0,0,0,2.5,2.25Zm-6.3-3.7a2.69,2.69,0,0,1-2.7,2.77,1.78,1.78,0,0,1-1.88-1.76,2.21,2.21,0,0,1,2.26-2.21l2.32-.21Zm14.11,3.66L213,85.14l-2.93,2.92L213,91l.67-.67Zm-44.09-19-2.92-2.93L166,69.06,168.92,72l.66-.66Z" style="fill:#231f20"/><path d="M154.78,90.48a3,3,0,0,1-1.4-.73,3.37,3.37,0,0,1-.89-1.28,4.51,4.51,0,0,1-2,1.56,6.54,6.54,0,0,1-2.42.45,5.4,5.4,0,0,1-2.11-.4,5.17,5.17,0,0,1-1.6-1,4.41,4.41,0,0,1-1-1.54,4.94,4.94,0,0,1-.35-1.81,4.63,4.63,0,0,1,.44-2,4.44,4.44,0,0,1,1.14-1.52,5.3,5.3,0,0,1,1.64-1,7.24,7.24,0,0,1,1.94-.47l3.67-.35v-1a2.56,2.56,0,0,0-.69-1.81,3.09,3.09,0,0,0-2.35-.74,8.28,8.28,0,0,0-2.32.32,6.85,6.85,0,0,0-2,.89l-.63-2.6a8,8,0,0,1,2.38-1A11.08,11.08,0,0,1,149,74a7.82,7.82,0,0,1,2.42.36,5.45,5.45,0,0,1,1.91,1.09,5.09,5.09,0,0,1,1.24,1.79,6.18,6.18,0,0,1,.45,2.44V86a2.57,2.57,0,0,0,.5,1.68,2.07,2.07,0,0,0,1.27.75Zm-2.91-7.59-3.11.28a2.9,2.9,0,0,0-2.06.9,2.48,2.48,0,0,0-.64,1.63,2,2,0,0,0,.62,1.47,2.06,2.06,0,0,0,1.56.64,3.1,3.1,0,0,0,1.26-.28,4.42,4.42,0,0,0,1.18-.74,3.72,3.72,0,0,0,.86-1.13,3,3,0,0,0,.33-1.38Z" style="fill:#231f20"/><path d="M235.17,78a6.78,6.78,0,0,0-2.08-1,9.2,9.2,0,0,0-2.15-.24,5.66,5.66,0,0,0-2.07.38,5.23,5.23,0,0,0-1.77,1.1,5.71,5.71,0,0,0-1.23,6.3,5.13,5.13,0,0,0,1.25,1.73,5.83,5.83,0,0,0,1.8,1.08,6,6,0,0,0,2.09.38,9,9,0,0,0,2.15-.25,11.7,11.7,0,0,0,2.35-.89l-.65,3.08a10,10,0,0,1-4.12.8,9.09,9.09,0,0,1-3.15-.56,8,8,0,0,1-2.71-1.63A8.18,8.18,0,0,1,223,85.72a8.76,8.76,0,0,1,0-6.91,8.2,8.2,0,0,1,1.91-2.6,8,8,0,0,1,2.71-1.62,9.09,9.09,0,0,1,3.15-.56,11.76,11.76,0,0,1,2.78.31,9.49,9.49,0,0,1,2.24.87Z" style="fill:#231f20"/><path d="M253.64,85.61a7.61,7.61,0,0,1-1.77,2.58,8,8,0,0,1-2.63,1.68,8.73,8.73,0,0,1-3.27.61,8.91,8.91,0,0,1-3.29-.61A8.09,8.09,0,0,1,240,88.19a7.44,7.44,0,0,1-1.76-2.58,9,9,0,0,1,0-6.68,7.82,7.82,0,0,1,1.76-2.6,8.11,8.11,0,0,1,2.65-1.69A8.71,8.71,0,0,1,246,74a8.54,8.54,0,0,1,3.27.61,7.85,7.85,0,0,1,4.4,4.29,9,9,0,0,1,0,6.68ZM250.71,80a5.35,5.35,0,0,0-1.13-1.73,5.23,5.23,0,0,0-1.64-1.11,4.85,4.85,0,0,0-2-.4,5,5,0,0,0-2,.4,5.16,5.16,0,0,0-1.65,1.11A5.21,5.21,0,0,0,241.19,80a6.35,6.35,0,0,0,0,4.49A5.16,5.16,0,0,0,244,87.34a5,5,0,0,0,2,.4,4.85,4.85,0,0,0,2-.4,5.4,5.4,0,0,0,1.64-1.11,5.46,5.46,0,0,0,1.13-1.73,6.21,6.21,0,0,0,0-4.49Z" style="fill:#231f20"/><path d="M277.51,90.1V79.36a2.3,2.3,0,0,0-.87-1.88,3.91,3.91,0,0,0-2.56-.71,3.84,3.84,0,0,0-2.56.76,2.33,2.33,0,0,0-.9,1.83V90.1h-3.15V79.36a2.3,2.3,0,0,0-.87-1.88,4,4,0,0,0-2.59-.71,3.88,3.88,0,0,0-2.57.76,2.35,2.35,0,0,0-.89,1.83V90.1h-3.16V74.41h2.77L260.3,76a6.24,6.24,0,0,1,1.92-1.45,6.75,6.75,0,0,1,2.86-.49,5.27,5.27,0,0,1,2.63.66,4.88,4.88,0,0,1,1.77,1.56,6.84,6.84,0,0,1,2.13-1.56,8,8,0,0,1,3.51-.66,6.31,6.31,0,0,1,2.2.38,5.6,5.6,0,0,1,1.77,1.06,4.65,4.65,0,0,1,1.15,1.61,4.83,4.83,0,0,1,.42,2v11Z" style="fill:#231f20"/><path d="M299.34,85.58a8,8,0,0,1-1.75,2.59,7.81,7.81,0,0,1-2.61,1.7,8.82,8.82,0,0,1-3.28.61,7.47,7.47,0,0,1-2.3-.33,7.12,7.12,0,0,1-1.61-.7v8.66h-3.15V74.39h2.7l.11,1.25a4.54,4.54,0,0,1,2-1.2,9.29,9.29,0,0,1,2.87-.41,7.35,7.35,0,0,1,2.62.52,7.9,7.9,0,0,1,2.49,1.54,8,8,0,0,1,1.85,2.56,8.25,8.25,0,0,1,.73,3.59A8.61,8.61,0,0,1,299.34,85.58ZM296.43,80a5.12,5.12,0,0,0-1.1-1.73,4.86,4.86,0,0,0-1.63-1.11,5,5,0,0,0-2-.4,5.54,5.54,0,0,0-2.29.45,4.68,4.68,0,0,0-1.64,1.15v7.91a5.91,5.91,0,0,0,1.65,1,5.83,5.83,0,0,0,2.28.43,5,5,0,0,0,3.61-1.51,5.22,5.22,0,0,0,1.1-1.73,6.23,6.23,0,0,0,.4-2.26A6.1,6.1,0,0,0,296.43,80Z" style="fill:#231f20"/><path d="M314.14,90.48a3,3,0,0,1-1.4-.73,3.37,3.37,0,0,1-.89-1.28,4.51,4.51,0,0,1-2,1.56,6.54,6.54,0,0,1-2.42.45,5.4,5.4,0,0,1-2.11-.4,5.17,5.17,0,0,1-1.6-1,4.41,4.41,0,0,1-1-1.54,4.94,4.94,0,0,1-.35-1.81,4.63,4.63,0,0,1,.44-2A4.44,4.44,0,0,1,304,82.12a5.3,5.3,0,0,1,1.64-1,7.24,7.24,0,0,1,1.94-.47l3.67-.35v-1a2.56,2.56,0,0,0-.69-1.81,3.11,3.11,0,0,0-2.36-.74,8.38,8.38,0,0,0-2.32.32,6.9,6.9,0,0,0-2,.89l-.63-2.6a8.1,8.1,0,0,1,2.37-1,11.22,11.22,0,0,1,2.76-.33,7.82,7.82,0,0,1,2.42.36,5.32,5.32,0,0,1,1.9,1.09,5,5,0,0,1,1.25,1.79,6.18,6.18,0,0,1,.45,2.44V86a2.57,2.57,0,0,0,.5,1.68,2.07,2.07,0,0,0,1.27.75Zm-2.91-7.59-3.12.28a2.94,2.94,0,0,0-2.06.9,2.53,2.53,0,0,0-.64,1.63,2.17,2.17,0,0,0,2.19,2.11,3.1,3.1,0,0,0,1.26-.28,4.42,4.42,0,0,0,1.18-.74,3.72,3.72,0,0,0,.86-1.13,3,3,0,0,0,.33-1.38Z" style="fill:#231f20"/><path d="M329.44,90.1v-10a3.78,3.78,0,0,0-.19-1.21,2.85,2.85,0,0,0-.64-1.06,3.31,3.31,0,0,0-1.14-.74,5.21,5.21,0,0,0-3.31,0,3.6,3.6,0,0,0-1.18.74,3.35,3.35,0,0,0-.71,1.06,3.15,3.15,0,0,0-.24,1.21v10h-3.15V74.44h2.77l.14,1.55a6.27,6.27,0,0,1,2-1.47,6.9,6.9,0,0,1,2.89-.49,6.78,6.78,0,0,1,2.37.4,5.53,5.53,0,0,1,1.88,1.12,5,5,0,0,1,1.25,1.79,6,6,0,0,1,.45,2.37V90.1Z" style="fill:#231f20"/><path d="M344.43,88.57a31.26,31.26,0,0,1-1.82,3.78,17.36,17.36,0,0,1-1.9,2.73,11.66,11.66,0,0,1-2.06,1.9,13.47,13.47,0,0,1-2.22,1.29l-1.9-1.94a10.65,10.65,0,0,0,2-1,9.32,9.32,0,0,0,1.73-1.51,12.77,12.77,0,0,0,1.54-2.15,22.51,22.51,0,0,0,1.42-2.94l-5.85-14.3h3.26l2.9,7.13c.21.51.43,1.07.66,1.67s.46,1.22.69,1.86h.07c.21-.6.43-1.18.66-1.76l.66-1.66,2.94-7.24h3Z" style="fill:#231f20"/></svg>